<svg xmlns="http://www.w3.org/2000/svg" xmlns:xlink="http://www.w3.org/1999/xlink" width="237.637" height="58.077" viewBox="0 0 237.637 58.077">
  <defs>
    <clipPath id="clip-path">
      <rect id="Rectangle_2183" data-name="Rectangle 2183" width="237.637" height="58.077" fill="#0b1c2b"/>
    </clipPath>
  </defs>
  <g id="Groupe_1677" data-name="Groupe 1677" clip-path="url(#clip-path)">
    <path id="Tracé_1221" data-name="Tracé 1221" d="M45.482,30.954a32.044,32.044,0,0,1-1.839,11.5A21.471,21.471,0,0,1,38.7,50.262a19.143,19.143,0,0,1-7.214,4.448,26.607,26.607,0,0,1-8.746,1.419,26.579,26.579,0,0,1-8.747-1.419,19.125,19.125,0,0,1-7.216-4.448,21.456,21.456,0,0,1-4.942-7.809A32.1,32.1,0,0,1,0,30.954a32.113,32.113,0,0,1,1.837-11.5A21.935,21.935,0,0,1,6.778,11.6a18.887,18.887,0,0,1,7.216-4.5,26.609,26.609,0,0,1,8.747-1.419A26.637,26.637,0,0,1,31.487,7.1,18.9,18.9,0,0,1,38.7,11.6a21.95,21.95,0,0,1,4.942,7.855,32.06,32.06,0,0,1,1.839,11.5m-28.427,0q0,12.588,1.18,18.5t4.506,5.915q3.32,0,4.5-5.915t1.18-18.5q0-12.493-1.18-18.362t-4.5-5.868q-3.327,0-4.506,5.868t-1.18,18.362" transform="translate(0 0.849)" fill="#0b1c2b"/>
    <path id="Tracé_1222" data-name="Tracé 1222" d="M70.468.556a16.65,16.65,0,0,1,5.854,1.1A14.155,14.155,0,0,1,81.63,5.238a18.731,18.731,0,0,1,3.855,6.491,28.694,28.694,0,0,1,1.489,9.915,24.652,24.652,0,0,1-1.743,9.835,18.261,18.261,0,0,1-4.473,6.452,16.509,16.509,0,0,1-6.107,3.5,21.917,21.917,0,0,1-6.582,1.062,12.046,12.046,0,0,1-4.618-.944,12.818,12.818,0,0,1-4.18-2.833q.072,2.2.074,5v6.413q0,3.3,1.2,4.407t4.253,1.1v1.26H40.729v-1.26q2.981,0,4.218-1.1t1.235-4.407v-20.3l-.072-19.75c0-.68-.315-1.023-.946-1.023h-.436V8.266a32.5,32.5,0,0,0,3.926-.629,29.473,29.473,0,0,0,4.253-1.26,16.143,16.143,0,0,0,3.673-1.927,5.824,5.824,0,0,0,2.181-2.715h.509v7a13.2,13.2,0,0,1,4.544-6.1A11.251,11.251,0,0,1,70.468.556m-2.98,40.758a3.3,3.3,0,0,0,2.8-1.3,9.206,9.206,0,0,0,1.455-3.856,39.863,39.863,0,0,0,.546-6.293q.069-3.737.071-8.7,0-4.72-.108-8.262a51.626,51.626,0,0,0-.472-5.941,8.866,8.866,0,0,0-1.2-3.619,2.571,2.571,0,0,0-2.218-1.221,6.319,6.319,0,0,0-2.908.748,10.214,10.214,0,0,0-2.727,2.085,14.165,14.165,0,0,0-2.218,3.109,11.452,11.452,0,0,0-1.235,3.816V37.381a12.751,12.751,0,0,0,3.89,2.911,9.95,9.95,0,0,0,4.327,1.023" transform="translate(6.079 0.083)" fill="#0b1c2b"/>
    <path id="Tracé_1223" data-name="Tracé 1223" d="M105.609,57.616H82.123v-1.1q2.981,0,4.182-1.14t1.2-4.367V36.843l-.071-11.959q0-1.1-.873-1.1h-.437v-.708a30.479,30.479,0,0,0,3.868-.63,26.8,26.8,0,0,0,4.1-1.26,13.822,13.822,0,0,0,3.472-1.968,6.268,6.268,0,0,0,2.085-2.754h.514v20.38q0,4.248.036,7.947t.036,6.216q0,3.227,1.2,4.367t4.18,1.14ZM92.944,13.062a5.556,5.556,0,0,1-4.29-1.928,6.623,6.623,0,0,1-1.746-4.6,6.629,6.629,0,0,1,1.746-4.6A5.564,5.564,0,0,1,92.944,0,5.26,5.26,0,0,1,95.2.513a6.2,6.2,0,0,1,1.927,1.416,6.745,6.745,0,0,1,1.78,4.6,6.739,6.739,0,0,1-1.78,4.6A6.165,6.165,0,0,1,95.2,12.551a5.258,5.258,0,0,1-2.255.511" transform="translate(12.257 0)" fill="#0b1c2b"/>
    <path id="Tracé_1224" data-name="Tracé 1224" d="M139.367,45.25a24.372,24.372,0,0,1-5.887,7.317,15.835,15.835,0,0,1-6.624,3.245,15,15,0,0,1-6.9-.2,22.824,22.824,0,0,1-6.783-3.071,24.329,24.329,0,0,1-5.652-5.09,17.948,17.948,0,0,1-3.357-6.528,19.148,19.148,0,0,1-.4-7.856,26.1,26.1,0,0,1,3.275-9.03,24.36,24.36,0,0,1,5.887-7.318,16.206,16.206,0,0,1,6.643-3.279,14.792,14.792,0,0,1,6.921.17,22.85,22.85,0,0,1,6.783,3.071,24.375,24.375,0,0,1,5.652,5.09,17.753,17.753,0,0,1,3.339,6.562,19.588,19.588,0,0,1,.383,7.89,26.1,26.1,0,0,1-3.275,9.031M119.161,31.99a82.689,82.689,0,0,0-6.532,13.7q-1.517,4.758.845,6.307t5.559-2.1q3.2-3.653,8.211-12.6a81.361,81.361,0,0,0,6.475-13.6q1.5-4.72-.864-6.273t-5.539,2.071q-3.179,3.62-8.154,12.5" transform="translate(15.454 1.957)" fill="#0b1c2b"/>
    <path id="Tracé_1225" data-name="Tracé 1225" d="M217.171,55.533h-23.34l-.074-1.18a6.724,6.724,0,0,0,3.928-.906,4.517,4.517,0,0,0,1.453-3.422V36.963q0-4.327.037-7.317t-.074-5.075a25.041,25.041,0,0,0-.4-3.541,10.194,10.194,0,0,0-.946-2.716,4.6,4.6,0,0,0-3.6-2.635A7.087,7.087,0,0,0,189.25,16.9a11.533,11.533,0,0,0-3.855,4.289A18.07,18.07,0,0,0,183.36,28.7q.071,1.733.037,3.62t-.037,3.934v12.59q0,3.3,1.235,4.405t4.219,1.1v1.18H165.473v-1.18a6.718,6.718,0,0,0,3.926-.906,4.514,4.514,0,0,0,1.455-3.422V36.963q0-4.327.036-7.317t-.072-5.075a25.4,25.4,0,0,0-.4-3.541,10.225,10.225,0,0,0-.94-2.716,4.59,4.59,0,0,0-3.585-2.635A7.024,7.024,0,0,0,161.01,16.9a12.331,12.331,0,0,0-3.837,4.328,18.18,18.18,0,0,0-2.026,7.632v5.9q0,4.248.037,7.947t.037,6.216q0,3.227,1.2,4.366t4.182,1.141v1.1H137.114v-1.1q2.981,0,4.181-1.141t1.2-4.366V34.76l-.072-11.96c0-.733-.292-1.1-.873-1.1h-.436v-.708a30.26,30.26,0,0,0,3.867-.63,26.557,26.557,0,0,0,4.1-1.258,13.858,13.858,0,0,0,3.474-1.968,6.286,6.286,0,0,0,2.085-2.754h.511l-.074,9.364a13.878,13.878,0,0,1,2.4-4.879,16.138,16.138,0,0,1,3.346-3.148,14.132,14.132,0,0,1,3.927-1.653,19.951,19.951,0,0,1,4.907-.669,20.368,20.368,0,0,1,5.054.552,12.506,12.506,0,0,1,4.364,1.927,8.556,8.556,0,0,1,2.835,3.7,20.984,20.984,0,0,1,1.235,5.036.95.95,0,0,1,.036-.276.656.656,0,0,0,.037-.2.239.239,0,0,1,.074-.157,13.991,13.991,0,0,1,5.816-8.262,14.117,14.117,0,0,1,3.927-1.653,19.969,19.969,0,0,1,4.908-.669,20.359,20.359,0,0,1,5.053.552,12.476,12.476,0,0,1,4.361,1.927,8.973,8.973,0,0,1,2.728,3.462,17.346,17.346,0,0,1,1.272,4.643,37.912,37.912,0,0,1,.328,5.666q-.04,3.069-.038,6.609l.074,12.59q0,3.3,1.2,4.405t4.179,1.1Z" transform="translate(20.465 2)" fill="#0b1c2b"/>
  </g>
</svg>