<svg xmlns="http://www.w3.org/2000/svg" width="159.743" height="159.743" viewBox="0 0 159.743 159.743">
  <path id="Icon_awesome-user-circle" data-name="Icon awesome-user-circle" d="M79.871.562a79.871,79.871,0,1,0,79.871,79.871A79.858,79.858,0,0,0,79.871.562Zm0,30.918A28.341,28.341,0,1,1,51.53,59.822,28.342,28.342,0,0,1,79.871,31.48Zm0,110.789a61.716,61.716,0,0,1-47.182-21.965,35.908,35.908,0,0,1,31.723-19.259,7.881,7.881,0,0,1,2.287.354,42.641,42.641,0,0,0,13.172,2.222A42.479,42.479,0,0,0,93.044,101.4a7.881,7.881,0,0,1,2.287-.354,35.908,35.908,0,0,1,31.723,19.259A61.716,61.716,0,0,1,79.871,142.27Z" transform="translate(0 -0.563)" fill="#0b1c2c"/>
</svg>
