<svg xmlns="http://www.w3.org/2000/svg" width="19.003" height="19.056" viewBox="0 0 19.003 19.056">
  <g id="Groupe_1970" data-name="Groupe 1970" transform="translate(-244 -498.001)">
    <path id="Tracé_1276" data-name="Tracé 1276" d="M28.348,11.822l-.719,2.36H25.794L28.873,5H31l3.066,9.178H32.135l-.721-2.36H28.348Zm2.7-1.351L29.929,6.758h-.081l-1.122,3.713h2.325Z" transform="translate(228.94 492.997)" fill="#0b1c2c" fill-rule="evenodd"/>
    <path id="Tracé_1277" data-name="Tracé 1277" d="M22.68,25.054H16.442v-1.1l4.092-5.907v-.086h-3.98V16.587h6v1.1l-4.072,5.907v.086h4.2v1.377ZM9.259,24.26a.793.793,0,1,1-1.586,0V8.709L5.854,10.531A.795.795,0,1,1,4.731,9.407L7.9,6.232l.011-.011a.79.79,0,0,1,1.111.01L12.2,9.407a.794.794,0,0,1-1.122,1.124L9.259,8.709Z" transform="translate(239.502 492.003)" fill="#0b1c2c"/>
  </g>
</svg>
